<?xml version="1.0" standalone="no"?><!DOCTYPE svg PUBLIC "-//W3C//DTD SVG 1.1//EN" "http://www.w3.org/Graphics/SVG/1.1/DTD/svg11.dtd"><svg t="1621602533429" class="icon" viewBox="0 0 1024 1024" version="1.1" xmlns="http://www.w3.org/2000/svg" p-id="2431" xmlns:xlink="http://www.w3.org/1999/xlink" width="200" height="200"><defs><style type="text/css"></style></defs><path d="M512 0C228.937143 0 0 228.449524 0 512s228.937143 512 512 512 512-228.449524 512-512S795.062857 0 512 0z" fill="#FFC92D" p-id="2432"></path><path d="M514.486857 232.350476c19.675429 0 31.50019-15.750095 31.500191-27.550476v-19.69981c0-19.69981-15.750095-31.50019-31.500191-31.50019-19.675429 0-31.50019 15.750095-31.50019 31.50019v19.675429c0 11.824762 15.750095 27.550476 31.50019 27.550476z m-240.152381 244.053334c0-19.675429-15.750095-27.550476-31.475809-27.550477h-23.649524c-19.675429 0-31.47581 15.750095-31.47581 27.550477 0 19.69981 15.750095 31.50019 27.550477 31.50019h23.649523c15.725714-3.925333 27.550476-19.675429 35.401143-31.47581z m78.750476-220.452572c7.875048 15.750095 27.550476 19.69981 43.300572 7.875048 15.750095-7.875048 19.675429-27.550476 7.875047-43.300572l-7.875047-19.675428c-7.875048-15.750095-27.550476-19.69981-43.300572-7.875048-15.750095 11.800381-19.69981 27.550476-7.875047 43.300572l7.875047 19.675428z m283.452953 7.875048c15.750095 7.875048 31.47581 3.949714 43.300571-7.875048l7.875048-19.675428c7.875048-15.750095 3.925333-31.50019-7.875048-43.300572-15.750095-7.875048-31.50019-3.949714-43.300571 7.875048l-7.875048 19.675428c-7.875048 15.750095-3.949714 35.425524 7.875048 43.300572z m133.851428 98.425904l19.675429-7.875047c15.750095-7.875048 19.675429-27.550476 15.750095-43.300572-7.875048-15.750095-27.550476-19.69981-43.300571-7.875047l-19.69981 7.875047c-15.750095 7.875048-19.675429 27.550476-7.875047 43.300572 0 11.800381 19.69981 19.675429 35.449904 7.875047z m-255.902476-86.601142c-114.176 0-200.777143 90.526476-204.702476 200.777142 0 66.925714 31.47581 122.026667 82.651429 161.401905v59.050667c0 23.625143 19.69981 43.300571 43.324952 43.300571h165.327238c23.649524 0 43.324952-19.675429 43.324952-43.300571V637.805714c51.175619-39.375238 82.651429-98.425905 82.651429-161.401904-7.850667-114.176-98.401524-200.777143-212.577524-200.777143z m299.203048 169.276952h-19.69981c-19.675429 0-27.550476 15.750095-27.550476 27.550476 0 19.675429 15.750095 27.550476 27.550476 27.550476h19.69981c19.675429 0 27.550476-15.725714 27.550476-27.550476 3.949714-15.750095-11.800381-27.550476-27.550476-27.550476zM262.534095 582.704762l-19.675428 7.875048c-15.750095 7.875048-19.69981 27.550476-15.750096 43.300571 7.875048 15.750095 27.550476 19.69981 43.300572 7.875048l19.675428-7.875048c15.750095-7.875048 19.69981-27.550476 7.875048-43.300571-3.925333-11.800381-19.675429-15.750095-35.425524-7.875048z m527.530667 11.824762l-19.675429-11.824762c-15.750095-7.875048-31.50019-3.925333-43.324952 7.875048-7.850667 15.750095-3.925333 31.50019 7.875048 43.300571l19.699809 7.875048c15.750095 7.875048 31.50019 3.949714 43.300572-7.875048 7.875048-11.800381 3.925333-31.47581-7.875048-39.350857z m-204.702476 181.077333h-145.676191c-7.875048 0-19.675429 7.875048-19.675428 19.69981v19.675428c0 23.625143 19.675429 43.300571 43.300571 43.300572H565.638095c23.625143 0 43.300571-19.675429 43.300572-39.350857v-19.69981c0-15.750095-7.875048-23.625143-23.600762-23.625143zM290.108952 311.100952l-19.699809-7.875047c-15.750095-7.875048-31.50019-3.949714-43.300572 7.875047-7.875048 15.750095-3.949714 31.50019 7.875048 43.300572l19.675429 7.875047c15.750095 7.875048 31.50019 3.925333 43.300571-7.875047 11.824762-11.800381 7.875048-31.50019-7.875048-43.300572z" fill="#FFFFFF" p-id="2433"></path></svg>