<?xml version="1.0" standalone="no"?><!DOCTYPE svg PUBLIC "-//W3C//DTD SVG 1.1//EN" "http://www.w3.org/Graphics/SVG/1.1/DTD/svg11.dtd"><svg t="1621652480530" class="icon" viewBox="0 0 1024 1024" version="1.1" xmlns="http://www.w3.org/2000/svg" p-id="2651" xmlns:xlink="http://www.w3.org/1999/xlink" width="200" height="200"><defs><style type="text/css"></style></defs><path d="M186.242278 737.945639h16.580458v41.451146h53.886491c0 82.902293 0 132.643668-4.145115 149.224127-4.145115 20.725573-16.580459 29.015802-37.306032 29.015803h-20.725573l-4.145115-16.580459h20.725574c12.435344 0 20.725573-8.290229 20.725573-20.725573s4.145115-58.031605 4.145114-128.498554h-33.160917v4.145115c0 74.612063-16.580459 128.498554-49.741375 161.659471l-12.435344-12.435344c29.015802-29.015802 45.596261-82.902293 45.596261-149.224127v-4.145115h-41.451146v-16.580458h41.451146v-37.306032z m169.9497 33.160917v194.820388h-16.580459v-16.580459h-45.596261v16.580459h-16.580458v-194.820388h78.757178z m-62.17672 157.514356h45.596261v-140.933897h-45.596261v140.933897zM410.078468 758.671212h49.741376v-20.725573h16.580458v20.725573h45.596261v16.580459h-45.596261v24.870688h58.031605v-62.17672h16.580459v62.17672h62.176719v16.580458h-62.176719c0 24.870688 4.145115 41.451146 4.145114 53.88649 0 8.290229 4.145115 12.435344 4.145115 20.725574 8.290229-16.580459 16.580459-37.306032 20.725573-62.17672l16.580459 8.290229c-8.290229 33.160917-16.580459 58.031605-29.015803 78.757178 0 4.145115 4.145115 8.290229 8.290229 16.580459 8.290229 12.435344 12.435344 16.580459 16.580459 16.580458 4.145115 0 8.290229-12.435344 12.435344-41.451146l16.580458 8.290229c-4.145115 33.160917-12.435344 49.741376-24.870687 49.741376-8.290229 0-16.580459-8.290229-29.015803-20.725573-4.145115-4.145115-4.145115-8.290229-8.290229-12.435344-12.435344 16.580459-29.015802 29.015802-45.596261 37.306032l-8.290229-12.435344c16.580459-8.290229 33.160917-24.870688 45.596261-41.451147-4.145115-12.435344-8.290229-24.870688-8.29023-37.306031-4.145115-16.580459-8.290229-37.306032-8.290229-58.031605h-140.933897v-16.580459h62.176719v-29.015802h-49.741376v-16.580459z m107.772981 174.094815s-8.290229 0-20.725574 4.145115l-20.725573 4.145114v29.015803h-12.435344v-29.015803c-12.435344 0-33.160917 4.145115-58.031605 4.145115l-4.145114-16.580459c16.580459 0 37.306032-4.145115 58.031605-4.145114v-24.870688h-49.741376l-4.145115-16.580459c8.290229-8.290229 12.435344-20.725573 20.725574-33.160917h-29.015803v-16.580458h33.160917c0-4.145115 4.145115-8.290229 8.29023-20.725573l16.580458 4.145114c0 4.145115-4.145115 12.435344-4.145115 16.580459h66.321835v16.580458h-70.466949c-4.145115 12.435344-12.435344 20.725573-16.580459 29.015803h33.160917v-20.725574h16.580459v20.725574h37.306032v16.580458h-37.306032v20.725573c12.435344 0 24.870688-4.145115 37.306032-4.145114v20.725573z m58.031604-194.820388c12.435344 12.435344 20.725573 24.870688 29.015803 37.306032l-12.435344 8.290229c-8.290229-12.435344-16.580459-24.870688-29.015802-37.306032l12.435343-8.290229zM745.832753 737.945639h16.580459v45.596261h91.192522v116.06321h-16.580459v-16.580459h-70.466948v82.902293h-16.580459v-82.902293h-70.466949v16.580459h-16.580458v-116.06321h87.047407v-45.596261z m-70.466948 128.498554h70.466948v-66.321834h-70.466948v66.321834z m87.047407 0h70.466949v-66.321834h-70.466949v66.321834z" fill="#757575" p-id="2652"></path><path d="M385.332134 589.840693c-4.145115 0-8.290229-4.145115-12.435344-12.435344l-20.725573-240.416648c0-4.145115 0-4.145115 4.145114-12.435344s4.145115-4.145115 12.435344-4.145115l223.83619 12.435344 16.580459-103.627866c0-4.145115 4.145115-8.290229 12.435344-12.435344l124.353439-20.725573c4.145115 0 16.580459 4.145115 16.580458 8.290229s-12.435344 16.580459-16.580458 16.580459l-111.918095 20.725573-16.580459 103.627866c0 4.145115-4.145115 12.435344-16.580458 12.435344l-223.836191-4.145115 20.725574 223.83619c0 4.145115-4.145115 12.435344-12.435344 12.435344zM518.058704 132.717451h12.435344c12.435344 4.145115 16.580459 16.580459 16.580459 29.015803v4.145114c-4.145115 12.435344-16.580459 20.725573-29.015803 20.725574h-8.290229c-12.435344-4.145115-20.725573-20.725573-16.580458-33.160917 4.145115-8.290229 12.435344-16.580459 24.870687-20.725574m0-24.870687c-20.725573 0-41.451146 16.580459-53.88649 37.306031 0 12.435344 0 29.015802 8.290229 41.451147 8.290229 12.435344 16.580459 20.725573 33.160917 24.870687h16.580459c20.725573 0 41.451146-16.580459 53.88649-37.306031 4.145115-24.870688-12.435344-53.88649-37.306032-66.321834h-20.725573z" fill="#757575" p-id="2653"></path><path d="M798.309905 247.827285l-227.981305-227.981305c-20.725573-24.870688-53.88649-24.870688-74.612064-8.290229l-8.290229 8.290229-302.593368 302.593368c-20.725573 16.580459-24.870688 49.741376-4.145115 74.612064 0 0 4.145115 4.145115 4.145115 8.290229l169.9497 169.9497h37.306032l-186.530159-186.530159c-4.145115-8.290229-8.290229-16.580459-8.290229-24.870688 0-12.435344 4.145115-16.580459 12.435344-24.870687l302.593368-302.593369c8.290229-8.290229 16.580459-8.290229 24.870688-12.435344 12.435344 0 16.580459 4.145115 24.870688 12.435344l227.981304 227.981305c8.290229 8.290229 8.290229 16.580459 12.435344 24.870688 0 8.290229-8.290229 20.725573-16.580458 24.870688l-269.432451 265.287336h37.306031l244.561764-244.561763c24.870688-20.725573 24.870688-58.031605 0-87.047407 4.145115 4.145115 0 0 0 0z" fill="#757575" p-id="2654"></path><path d="M262.719643 547.809231h-111.918095c-8.290229 0-16.580459-4.145115-16.580459-16.580459 0-8.290229 4.145115-8.290229 16.580459-8.290229h116.063209c8.290229 0 16.580459 8.290229 16.580459 16.580459-4.145115 8.290229-12.435344 8.290229-20.725573 8.290229z" fill="#757575" opacity=".5" p-id="2655"></path><path d="M711.677009 597.633509h-410.366349c-8.290229-4.145115-16.580459-8.290229-16.580458-16.580459s4.145115-16.580459 12.435343-16.580458h414.511464c8.290229 0 16.580459 4.145115 16.580458 16.580458s-8.290229 12.435344-16.580458 16.580459z" fill="#757575" p-id="2656"></path><path d="M850.911409 654.711737h-290.158024c-8.290229-4.145115-16.580459-8.290229-16.580458-16.580458s4.145115-16.580459 12.435343-16.580459h294.303139c8.290229 0 16.580459 8.290229 16.580459 16.580459-4.145115 8.290229-8.290229 12.435344-16.580459 16.580458z" fill="#757575" opacity=".5" p-id="2657"></path><path d="M363.15577 711.789966h-269.432451c-8.290229-4.145115-16.580459-8.290229-16.580458-16.580459s4.145115-16.580459 12.435344-16.580458H367.300885c8.290229 0 16.580459 8.290229 16.580459 16.580458s-12.435344 16.580459-20.725574 16.580459z" fill="#757575" opacity=".5" p-id="2658"></path><path d="M493.188017 711.789966h-62.17672c-8.290229-4.145115-16.580459-8.290229-16.580459-16.580459s4.145115-16.580459 12.435344-16.580458H497.333131c8.290229 0 16.580459 8.290229 16.580459 16.580458s-12.435344 16.580459-20.725573 16.580459z" fill="#757575" opacity=".5" p-id="2659"></path><path d="M992.384172 654.711737h-78.757178c-8.290229-4.145115-16.580459-8.290229-16.580459-16.580458s4.145115-16.580459 12.435344-16.580459h82.902293c8.290229 0 16.580459 8.290229 16.580458 16.580459s-8.290229 12.435344-16.580458 16.580458z" fill="#757575" opacity=".5" p-id="2660"></path><path d="M777.54288 550.918067h-87.047407c-8.290229-4.145115-16.580459-8.290229-16.580458-16.580459s4.145115-16.580459 12.435343-16.580458h91.192522c8.290229 0 16.580459 8.290229 16.580459 16.580458s-4.145115 12.435344-16.580459 16.580459c4.145115 0 0 0 0 0z" fill="#757575" opacity=".5" p-id="2661"></path><path d="M81.205073 547.809231H31.463697c-8.290229 0-16.580459-4.145115-16.580458-16.580459 0-8.290229 8.290229-8.290229 20.725573-8.290229h53.88649c8.290229 0 12.435344 8.290229 12.435344 16.580459s-8.290229 8.290229-20.725573 8.290229z" fill="#757575" opacity=".5" p-id="2662"></path></svg>