<?xml version="1.0" standalone="no"?><!DOCTYPE svg PUBLIC "-//W3C//DTD SVG 1.1//EN" "http://www.w3.org/Graphics/SVG/1.1/DTD/svg11.dtd"><svg t="1621426348826" class="icon" viewBox="0 0 1024 1024" version="1.1" xmlns="http://www.w3.org/2000/svg" p-id="6909" xmlns:xlink="http://www.w3.org/1999/xlink" width="200" height="200"><defs><style type="text/css"></style></defs><path d="M972.8 505.173333C972.8 245.76 761.173333 34.133333 505.173333 34.133333S34.133333 245.76 34.133333 505.173333s211.626667 471.04 471.04 471.04 467.626667-215.04 467.626667-471.04z" fill="#FFFFFF" p-id="6910"></path><path d="M505.173333 1006.933333C225.28 1006.933333 0 781.653333 0 505.173333 0 225.28 225.28 0 505.173333 0c276.48 0 505.173333 225.28 505.173334 505.173333-3.413333 276.48-228.693333 501.76-505.173334 501.76z m0-938.666666C262.826667 68.266667 68.266667 262.826667 68.266667 505.173333s194.56 436.906667 436.906666 436.906667 436.906667-194.56 436.906667-436.906667S744.106667 68.266667 505.173333 68.266667z" fill="#dbdbdb" p-id="6911"></path><path d="M474.453333 709.973333l-177.493333-170.666666c-20.48-20.48-20.48-51.2-3.413333-71.68 20.48-20.48 51.2-20.48 71.68-3.413334l109.226666 102.4 232.106667-208.213333c20.48-20.48 54.613333-17.066667 71.68 3.413333 20.48 20.48 17.066667 54.613333-3.413333 71.68l-300.373334 276.48z" fill="#ffffff" p-id="6912"></path></svg>