<?xml version="1.0" standalone="no"?><!DOCTYPE svg PUBLIC "-//W3C//DTD SVG 1.1//EN" "http://www.w3.org/Graphics/SVG/1.1/DTD/svg11.dtd"><svg t="1621073390293" class="icon" viewBox="0 0 1024 1024" version="1.1" xmlns="http://www.w3.org/2000/svg" p-id="4896" xmlns:xlink="http://www.w3.org/1999/xlink" width="200" height="200"><defs><style type="text/css"></style></defs><path d="M 478.104 337.595 V 184.661 L 114.484 442.198 l 363.621 257.597 V 548.221 c 145.53 0.060409 280.457 7.40576 394.535 210.864 c 0.001024 -129.244 -21.3214 -417.874 -394.535 -421.49 Z" fill="#98c4d8" p-id="4897"></path><path d="M 447.779 307.27 V 154.334 L 84.1583 411.871 L 447.779 669.468 V 517.895 c 145.53 0.060409 280.457 7.40576 394.535 210.864 c 0 -129.244 -21.3224 -417.874 -394.535 -421.489 Z" fill="#ff9999" p-id="4898"></path><path d="M 283.003 350.41 a 27.2835 57.9775 55.515 1 0 95.5788 -65.6526 a 27.2835 57.9775 55.515 1 0 -95.5788 65.6526 Z" fill="#fefefe" p-id="4899"></path><path d="M 224.417 445.822 a 18.1893 31.8305 55.515 1 0 52.4742 -36.0443 a 18.1893 31.8305 55.515 1 0 -52.4742 36.0443 Z" fill="#fefefe" p-id="4900"></path></svg>