<?xml version="1.0" standalone="no"?><!DOCTYPE svg PUBLIC "-//W3C//DTD SVG 1.1//EN" "http://www.w3.org/Graphics/SVG/1.1/DTD/svg11.dtd"><svg t="1621330312950" class="icon" viewBox="0 0 1113 1024" version="1.1" xmlns="http://www.w3.org/2000/svg" p-id="3294" xmlns:xlink="http://www.w3.org/1999/xlink" width="217.3828125" height="200"><defs><style type="text/css"></style></defs><path d="M1113.043478 264.45913H0l158.408348-197.587478C212.502261 13.356522 245.49287 0.089043 311.830261 0.089043h489.650087c39.891478 0 90.37913 4.541217 153.243826 66.782609L1113.043478 264.45913z m-189.350956 263.078957c-102.845217-2.626783-204.265739-122.746435-204.265739-219.89287H1113.043478c-22.483478 73.327304-80.806957 222.608696-189.350956 219.89287z m-384 0c-99.283478 0-179.778783-122.746435-179.778783-219.89287h359.513044c0 97.146435-80.495304 219.89287-179.734261 219.89287z m-359.513044 0C55.429565 520.281043 0.445217 404.791652 0.445217 307.645217h359.468522c0 97.146435-37.665391 228.129391-179.734261 219.89287z m2.137044 264.681739h748.677565v-175.682783h93.584696v307.422609c0 48.528696-41.894957 87.885913-93.584696 87.885913H182.316522c-51.645217 0-93.540174-39.357217-93.540174-87.885913v-307.422609h93.540174v175.682783z" fill="#FE6994" p-id="3295"></path></svg>