<?xml version="1.0" standalone="no"?><!DOCTYPE svg PUBLIC "-//W3C//DTD SVG 1.1//EN" "http://www.w3.org/Graphics/SVG/1.1/DTD/svg11.dtd"><svg t="1621686054518" class="icon" viewBox="0 0 1024 1024" version="1.1" xmlns="http://www.w3.org/2000/svg" p-id="7218" xmlns:xlink="http://www.w3.org/1999/xlink" width="200" height="200"><defs><style type="text/css"></style></defs><path d="M511.650909 104.727273C280.506182 104.704 93.090909 286.836364 93.090909 511.534545c0 133.329455 67.141818 258.187636 179.758546 334.219637 19.874909-68.538182 72.424727-123.648 141.242181-148.084364-13.614545 15.546182 1.466182 129.163636 23.784728 113.896727l36.887272-25.134545 36.794182-25.274182-2.443636-1.675636-34.350546-23.505455-53.387636-38.562909a8.308364 8.308364 0 0 0-2.420364-1.233454l-0.418909-0.116364-1.047272 0.349091c3.584-1.256727 7.168-2.420364 10.798545-3.514182l3.048727-0.930909c7.051636-2.024727 14.196364-3.793455 21.364364-5.282909l3.258182-0.628364a286.859636 286.859636 0 0 1 19.618909-3.095272c1.140364-0.139636 2.280727-0.302545 3.444363-0.41891 3.816727-0.442182 7.656727-0.791273 11.496728-1.093818h42.356363c3.863273 0.302545 7.68 0.674909 11.473455 1.093818 1.186909 0.116364 2.373818 0.279273 3.560727 0.442182a274.618182 274.618182 0 0 1 19.386182 3.025455l3.444364 0.698182c3.537455 0.698182 7.051636 1.489455 10.496 2.350545l0.279272 0.069818c3.514182 0.861091 7.005091 1.815273 10.449455 2.816l3.258182 1.000728c3.607273 1.093818 7.168 2.257455 10.705454 3.490909l-1.349818-0.465455-0.209454 0.069818a7.68 7.68 0 0 0-2.932364 1.396364l-53.015273 38.562909-34.443636 23.505455-2.443637 1.652363 36.910546 25.250909 36.770909 25.157818c22.481455 15.36 37.376-99.909818 23.272727-114.199272 69.189818 24.273455 122.088727 79.522909 142.056728 148.340363 189.789091-128.232727 236.730182-381.789091 104.820363-566.295272-78.242909-109.451636-206.638545-174.708364-343.738182-174.685091z m0 576.651636c-106.263273 0-193.396364-81.943273-196.933818-185.204364l-0.349091-0.209454c-3.514182-65.256727 28.741818-127.464727 84.829091-163.490909 0.930909-0.628364 1.815273-1.28 2.769454-1.861818 0.930909-0.651636 1.908364-1.210182 2.839273-1.792 1.768727-1.117091 3.514182-2.234182 5.352727-3.258182 1.768727-1.070545 3.537455-2.048 5.352728-3.025455l2.327272-1.303272a183.714909 183.714909 0 0 1 85.876364-22.853819c2.629818-0.093091 5.236364-0.186182 7.912727-0.186181 2.536727 0 5.050182 0.093091 7.540364 0.162909a176.64 176.64 0 0 1 68.584727 14.661818 197.818182 197.818182 0 0 1 55.714909 34.397091c44.427636 36.887273 68.538182 91.857455 65.233455 148.549818l-0.186182 0.116364c-3.467636 103.284364-90.577455 185.274182-196.887273 185.297454z" fill="#F76E42" p-id="7219"></path><path d="M415.511273 323.560727l2.350545-2.327272-2.327273 2.327272z m103.68-24.482909a64.162909 64.162909 0 0 0-7.540364-0.558545 69.818182 69.818182 0 0 0-7.912727 0.558545c2.56 0.093091 5.12 0.279273 7.610182 0.791273 2.606545-0.512 5.236364-0.768 7.842909-0.791273z m-114.362182 29.742546c1.768727-1.117091 3.537455-2.234182 5.352727-3.258182-1.815273 1.024-3.607273 2.141091-5.352727 3.258182z m-5.608727 4.096c0.930909-0.768 1.815273-1.582545 2.769454-2.327273l-2.792727 2.327273z m188.555636-19.874909a213.410909 213.410909 0 0 1 55.714909 34.373818 197.934545 197.934545 0 0 0-55.714909-34.373818z m-108.637091 99.118545c-37.841455 64.628364-102.004364 121.879273-164.398545 84.014545 3.723636 105.728 94.882909 188.509091 203.636363 184.878546 103.563636-3.444364 186.647273-84.293818 190.138182-184.971636-52.084364 31.604364-188.788364-14.196364-229.376-83.921455z" fill="#FCE9EA" p-id="7220"></path><path d="M581.725091 689.757091l0.814545 0.186182-0.814545-0.186182z m22.644364 7.028364l0.232727-0.116364 1.303273 0.861091-3.560728-2.327273 2.071273 1.349818-0.046545 0.232728z m-37.073455-10.635637c1.163636 0.651636 2.304 1.233455 3.444364 1.978182-1.163636-0.744727-2.304-1.326545-3.444364-1.978182z m41.169455 11.217455c14.126545 14.289455-0.768 129.559273-23.272728 114.176l-36.770909-25.134546-36.887273-25.250909-36.770909 25.250909-36.887272 25.134546c-22.318545 15.266909-37.399273-98.327273-23.784728-113.873455-68.840727 24.436364-121.390545 79.546182-141.265454 148.107637 143.639273 96.954182 334.103273 96.930909 477.719273-0.069819-19.991273-68.817455-72.890182-124.043636-142.08-148.340363z m-187.485091-2.141091l-3.490909 2.327273 1.047272-0.67491 0.418909 0.209455-0.069818-0.442182 2.094546-1.419636z" fill="#242120" p-id="7221"></path><path d="M511.650909 759.575273c-0.861091 0-1.698909-0.069818-2.536727-0.093091l2.443636 2.327273 2.397091-2.327273a37.282909 37.282909 0 0 1-2.327273 0.093091z m80.290909-67.653818l3.304727 2.327272-3.281454-2.327272z m-139.240727-3.863273l3.258182-1.861818-3.258182 1.861818z m91.648-5.189818l3.537454 1.28-3.537454-1.28z m-116.061091 11.426909c1.024-0.814545 2.024727-1.629091 3.048727-2.327273-1.047273 0.698182-2.024727 1.559273-3.048727 2.327273z m47.290182-10.146909c1.140364-0.465455 2.280727-0.907636 3.421091-1.256728-1.163636 0.349091-2.257455 0.791273-3.421091 1.256728z" fill="#D5E270" p-id="7222"></path><path d="M513.954909 759.505455l34.466909-23.505455 53.015273-38.562909a7.773091 7.773091 0 0 1 2.932364-1.396364l0.046545-0.116363-2.071273-0.698182a259.444364 259.444364 0 0 0-7.098182-2.304l-3.281454-1.000727a241.012364 241.012364 0 0 0-10.449455-2.792728l-0.279272-0.069818c-3.490909-0.861091-6.981818-1.652364-10.472728-2.373818l-3.490909-0.674909a307.479273 307.479273 0 0 0-19.386182-3.025455l-3.537454-0.465454a299.473455 299.473455 0 0 0-11.473455-1.070546h-42.356363c-3.84 0.279273-7.68 0.651636-11.52 1.070546l-3.421091 0.418909c-2.676364 0.349091-5.352727 0.698182-7.982546 1.093818-3.886545 0.581818-7.773091 1.256727-11.636363 2.024727l-3.258182 0.628364c-7.191273 1.466182-14.312727 3.211636-21.364364 5.259636l-3.025454 0.930909-7.330909 2.327273-2.094546 0.721455 0.069818 0.232727c0.884364 0.302545 1.698909 0.698182 2.420364 1.256727l53.387636 38.586182 34.350546 23.505455 2.536727 0.046545 2.327273-0.046545z" fill="#FEFEFE" p-id="7223"></path><path d="M479.162182 412.16c40.564364 69.725091 177.268364 115.525818 229.376 83.921455l0.162909-0.116364c3.328-56.692364-20.782545-111.662545-65.210182-148.549818a213.480727 213.480727 0 0 0-55.691636-34.373818 176.570182 176.570182 0 0 0-68.608-14.661819c-2.629818 0-5.259636 0.116364-7.842909 0.279273 6.795636 23.458909-6.795636 70.120727-32.209455 113.501091z" fill="#242120" p-id="7224"></path><path d="M479.162182 412.16c25.413818-43.380364 38.981818-90.018909 32.186182-113.501091a142.359273 142.359273 0 0 0-7.610182-0.279273 183.714909 183.714909 0 0 0-85.876364 22.853819l-2.327273 1.303272c-1.792 0.977455-3.607273 1.954909-5.376 3.025455-1.792 1.024-3.560727 2.141091-5.352727 3.258182l-2.816 1.768727-2.792727 1.861818c-56.087273 36.049455-88.343273 98.257455-84.805818 163.514182l0.349091 0.209454c62.370909 37.864727 126.533818-19.386182 164.398545-84.014545z" fill="#242120" p-id="7225"></path></svg>