<?xml version="1.0" standalone="no"?><!DOCTYPE svg PUBLIC "-//W3C//DTD SVG 1.1//EN" "http://www.w3.org/Graphics/SVG/1.1/DTD/svg11.dtd"><svg t="1621685864586" class="icon" viewBox="0 0 1024 1024" version="1.1" xmlns="http://www.w3.org/2000/svg" p-id="3810" xmlns:xlink="http://www.w3.org/1999/xlink" width="200" height="200"><defs><style type="text/css"></style></defs><path d="M512 0a512 512 0 1 0 512 512A512 512 0 0 0 512 0z" fill="#2680EB" p-id="3811"></path><path d="M713.111273 735.906909a72.669091 72.669091 0 0 1-6.679273 31.034182 82.315636 82.315636 0 0 1-18.350545 25.367273 86.900364 86.900364 0 0 1-27.368728 17.349818 89.111273 89.111273 0 0 1-33.745454 6.341818H390.097455a89.064727 89.064727 0 0 1-33.745455-6.341818 86.935273 86.935273 0 0 1-27.368727-17.349818 82.245818 82.245818 0 0 1-18.350546-25.367273 72.669091 72.669091 0 0 1-6.679272-31.034182V288.756364a74.903273 74.903273 0 0 1 6.679272-31.418182 81.082182 81.082182 0 0 1 18.350546-25.693091 86.946909 86.946909 0 0 1 27.403636-17.303273 89.064727 89.064727 0 0 1 33.745455-6.341818h236.928a89.064727 89.064727 0 0 1 33.745454 6.341818 86.946909 86.946909 0 0 1 27.368727 17.349818 81.117091 81.117091 0 0 1 18.350546 25.693091 74.903273 74.903273 0 0 1 6.679273 31.418182v447.104z m-54.004364-415.115636H357.387636v382.417454h301.719273V320.791273zM508.276364 721.896727a33.885091 33.885091 0 0 0-24.354909 10.007273 34.688 34.688 0 1 0 49.058909 49.058909 34.536727 34.536727 0 0 0-24.692364-59.066182z m53.387636-457.832727a10.833455 10.833455 0 0 0-10.682182-11.345455h-84.805818a11.287273 11.287273 0 0 0-6.981818 3.002182 10.181818 10.181818 0 0 0-3.665455 8.343273 10.833455 10.833455 0 0 0 10.682182 11.345455h84.677818a10.833455 10.833455 0 0 0 10.682182-11.345455z" fill="#FFFFFF" p-id="3812"></path></svg>